<svg t="1679402654500" class="icon" viewBox="0 0 1024 1024" version="1.1" xmlns="http://www.w3.org/2000/svg" p-id="3190" width="200" height="200"><path d="M269.7728 317.5936l355.4304-218.368c21.4016-13.1584 49.408-6.5024 62.6176 14.848l129.024 208.128" fill="#FFAC48" p-id="3191"></path><path d="M594.3296 123.1872l133.5808 198.9632h88.9856l-149.1456-229.7344c0 0.0512-42.2912 0.7168-73.4208 30.7712z" fill="#FC992D" p-id="3192"></path><path d="M424.704 316.6208l284.9792-167.3216 71.3728 115.0976-86.9888 57.8048" fill="#76BFFF" p-id="3193"></path><path d="M639.488 190.5152l77.9776 116.1216 62.4128-41.472-73.8304-113.7152z" fill="#659CF8" p-id="3194"></path><path d="M837.2224 923.4944H259.328c-45.6192 0-82.5856-36.9664-82.5856-82.5856V451.2256c0-45.6192 36.9664-82.5856 82.5856-82.5856h577.8944c45.6192 0 82.5856 36.9664 82.5856 82.5856v389.7344c0 45.568-36.9664 82.5344-82.5856 82.5344z" fill="#FF7D7B" p-id="3195"></path><path d="M837.2224 368.64h-15.5136c10.6496 14.4896 22.528 43.52 22.528 100.9664v349.0304c0 40.4992-5.2224 104.8576-69.2736 104.8576h22.016c73.1136-2.1504 122.8288-28.0064 122.8288-111.4112V451.2256c0-45.6192-36.9664-82.5856-82.5856-82.5856z" fill="#F75252" p-id="3196"></path><path d="M733.2864 727.3984h186.5216v-209.152h-186.5216c-57.7536 0-104.6016 46.7968-104.6016 104.6016 0 57.7536 46.848 104.5504 104.6016 104.5504z" fill="#F2C336" p-id="3197"></path><path d="M844.2368 518.2464h64.8704v206.2848h-64.8704z" fill="#E8A200" p-id="3198"></path><path d="M114.5344 562.3808c8.4992 0 15.36-6.8608 15.36-15.36v-11.8784c0-8.4992-6.8608-15.36-15.36-15.36s-15.36 6.8608-15.36 15.36v11.8784c0 8.4992 6.912 15.36 15.36 15.36z" fill="#333333" p-id="3199"></path><path d="M825.4464 306.8416l-31.3344-50.5344v-0.0512l-63.488-102.4512-29.696-47.9232c-17.664-28.4672-55.1936-37.3248-83.712-19.8144L511.1296 151.296a15.42144 15.42144 0 0 0-5.0688 21.1456 15.3856 15.3856 0 0 0 21.1456 5.0688l106.0352-65.1776c14.1824-8.704 32.768-4.2496 41.5232 9.8304l13.568 21.9136-271.4112 159.2832c-1.5872 0.9216-2.8672 2.0992-3.9936 3.4304h-96.256l160.3584-98.5088c7.2192-4.4544 9.472-13.8752 5.0688-21.1456a15.37536 15.37536 0 0 0-21.1456-5.0688L261.7344 304.5376a13.824 13.824 0 0 0-2.816 2.304h-49.5616c-60.7232 0-110.1312 49.408-110.1312 110.1312v48.128c0 8.4992 6.8608 15.36 15.36 15.36s15.36-6.8608 15.36-15.36v-48.128c0-43.776 35.6352-79.4112 79.4112-79.4112h615.68c43.776 0 79.4112 35.6352 79.4112 79.4112v85.9648H698.88c-66.1504 0-119.9616 53.8112-119.9616 119.9104 0 66.1504 53.8112 119.9616 119.9616 119.9616h205.568v85.9648c0 43.776-35.6352 79.4112-79.4112 79.4112H209.3056c-43.776 0-79.4112-35.6352-79.4112-79.4112v-231.3728c0-8.4992-6.8608-15.36-15.36-15.36s-15.36 6.8608-15.36 15.36v231.3728c0 60.7232 49.408 110.1312 110.1312 110.1312h615.68c60.7232 0 110.1312-49.408 110.1312-110.1312V416.9728c0.0512-60.6208-49.152-109.9264-109.6704-110.1312z m-36.1472 0h-44.3392l31.3856-20.8896 12.9536 20.8896z m-84.736-136.704l47.0528 75.9296 8.5504 13.7728-70.7072 47.0016H471.7056l232.8576-136.704z m-5.6832 541.9008c-49.2032 0-89.2416-40.0384-89.2416-89.2416s40.0384-89.1904 89.2416-89.1904h205.568v178.432H698.88z" fill="#333333" p-id="3200"></path><path d="M694.0672 567.3472c-30.5664 0-55.4496 24.8832-55.4496 55.4496s24.8832 55.5008 55.4496 55.5008 55.5008-24.8832 55.5008-55.5008-24.9344-55.4496-55.5008-55.4496z m0 80.2304a24.7552 24.7552 0 0 1 0-49.5104c13.6704 0 24.7808 11.1104 24.7808 24.7296 0 13.7216-11.1104 24.7808-24.7808 24.7808z" fill="#333333" p-id="3201"></path><path d="M239.616 657.8688a12.8 12.8 0 0 1-12.8-12.8v-16.0256a12.8 12.8 0 0 1 25.6 0v16.0256a12.8 12.8 0 0 1-12.8 12.8zM239.616 597.76a12.8 12.8 0 0 1-12.8-12.8V474.4704c0-30.976 25.1904-56.1152 56.1664-56.1152h42.2912a12.8 12.8 0 0 1 0 25.6h-42.2912c-16.8448 0-30.5664 13.7216-30.5664 30.5152v110.5408c0 7.0656-5.7344 12.7488-12.8 12.7488z" fill="#FFFFFF" p-id="3202"></path><path d="M816.384 585.6768h-42.1376a12.8 12.8 0 0 1 0-25.6h42.1376a12.8 12.8 0 0 1 0 25.6z" fill="#FFFFFF" p-id="3203"></path><path d="M591.2576 288.9728a12.78976 12.78976 0 0 1-6.7584-23.6544l34.6624-21.5552a12.78976 12.78976 0 0 1 13.5168 21.7088l-34.6624 21.5552c-2.0992 1.28-4.4032 1.9456-6.7584 1.9456z" fill="#FFFFFF" p-id="3204"></path></svg>